<svg width="120" height="24" viewBox="0 0 120 24" fill="none" xmlns="http://www.w3.org/2000/svg">
<path d="M5.25026 19.8649C4.6976 19.8103 4.11731 19.6737 3.48175 19.5097C2.76329 19.3185 2.15537 19.0725 1.68561 18.772C1.21585 18.4714 0.801355 18.0342 0.497393 17.4877C0.165798 16.9685 0 16.3128 0 15.575V8.93514C0 5.90212 2.3488 4.37195 7.07403 4.37195C8.28988 4.37195 9.89259 4.5359 11.9374 4.89111V7.62356C10.1137 7.18637 8.51094 6.96778 7.1293 6.96778C6.54901 6.96778 6.10688 6.9951 5.77528 7.02243C5.44369 7.04975 5.11209 7.13172 4.7805 7.26835C4.03441 7.51427 3.67518 8.06076 3.67518 8.90782V15.3018C3.67518 16.668 4.9463 17.3511 7.46089 17.3511C8.53858 17.3511 10.0584 17.1325 12.0203 16.668V19.4277C10.3347 19.7556 8.70438 19.9469 7.07403 19.9469C6.38321 19.9469 5.77528 19.9196 5.25026 19.8649Z" fill="#093845"/>
<path d="M17.9616 19.8649C17.5195 19.8103 17.0221 19.7283 16.497 19.5917C15.9444 19.4278 15.4746 19.2092 15.143 18.9359C14.7838 18.6353 14.5075 18.2528 14.2588 17.7063C14.0101 17.1871 13.8995 16.586 13.8995 15.8482V12.5147C13.8995 11.7769 14.0101 11.1211 14.2588 10.5473C14.5075 10.0008 14.8114 9.56361 15.1707 9.23572C15.5022 8.96247 15.9444 8.74388 16.4694 8.57993C17.0221 8.38866 17.5471 8.27936 18.0721 8.25204C18.68 8.22471 19.2051 8.19739 19.7025 8.19739C20.4209 8.19739 21.0012 8.22471 21.4433 8.25204C21.8855 8.27936 22.3552 8.38866 22.8802 8.55261C23.4329 8.71655 23.9027 8.96247 24.2619 9.26304C24.6211 9.56361 24.9251 9.97348 25.1738 10.52C25.4225 11.0665 25.533 11.7496 25.533 12.5147V15.8482C25.533 16.5587 25.4225 17.1598 25.2014 17.679C24.9803 18.1982 24.6764 18.608 24.3172 18.9086C24.0132 19.1818 23.5711 19.3731 23.046 19.5371C22.4934 19.701 21.9684 19.8103 21.4433 19.8649C20.9736 19.9196 20.4209 19.9469 19.7577 19.9469C19.0116 19.9469 18.4313 19.9196 17.9616 19.8649ZM21.167 17.679C21.4986 17.5697 21.7197 17.4057 21.8578 17.2145C21.996 16.9959 22.0513 16.668 22.0513 16.2581V11.9955C22.0513 11.367 21.8855 10.9298 21.5539 10.6839C21.2223 10.438 20.6143 10.3014 19.7025 10.3014C18.7906 10.3014 18.1826 10.438 17.851 10.6839C17.5195 10.9298 17.3537 11.367 17.3537 11.9955V16.2581C17.3537 16.668 17.4089 16.9959 17.5471 17.2145C17.6853 17.4331 17.9063 17.597 18.2379 17.679C18.5695 17.7883 19.0669 17.8429 19.7025 17.8429C20.338 17.8156 20.8354 17.7883 21.167 17.679Z" fill="#093845"/>
<path d="M29.567 19.6463C28.9315 19.4551 28.4894 19.0725 28.213 18.5534C27.9643 18.0069 27.8262 17.1598 27.8262 16.0122V11.6129C27.8262 10.3833 28.1854 9.48162 28.9039 8.98978C29.6223 8.47061 30.7829 8.22469 32.3856 8.22469C33.1317 8.22469 33.7396 8.27934 34.1541 8.36131C34.5962 8.44329 34.9278 8.60723 35.2042 8.7985C35.4805 9.0171 35.7568 9.31767 36.0332 9.72754V3.4429H39.4596V19.7283H36.1437V18.4441C35.8674 18.8812 35.6187 19.2091 35.37 19.4004C35.1489 19.5917 34.8173 19.7283 34.4028 19.8103C33.9883 19.9196 33.3528 19.9742 32.5238 19.9742C31.1974 19.9469 30.2026 19.8376 29.567 19.6463ZM35.1213 17.7063C35.4805 17.6243 35.7292 17.4877 35.8397 17.2691C35.9779 17.0505 36.0332 16.7499 36.0332 16.3127V11.8042C36.0332 11.4217 35.9779 11.1211 35.8397 10.9025C35.7016 10.6839 35.4805 10.5473 35.1213 10.438C34.7897 10.356 34.2646 10.3014 33.6015 10.3014C32.883 10.3014 32.358 10.356 32.054 10.438C31.7501 10.5199 31.529 10.6839 31.4185 10.8752C31.3079 11.0938 31.2527 11.4217 31.2527 11.9135V16.2308C31.2527 16.668 31.3079 16.9959 31.4185 17.2145C31.529 17.433 31.7224 17.597 32.0264 17.679C32.3303 17.7609 32.8001 17.8156 33.408 17.8156C34.2094 17.8156 34.762 17.7883 35.1213 17.7063Z" fill="#093845"/>
<path d="M42.1678 16.2854V12.2414C42.1678 10.8205 42.6376 9.80952 43.5495 9.18106C44.4614 8.55259 45.8707 8.2247 47.805 8.2247C49.6011 8.2247 50.9275 8.52527 51.7841 9.15373C52.6131 9.75487 53.0552 10.7932 53.0552 12.2687V15.0285H45.6496V16.0395C45.6496 16.6953 45.8983 17.1598 46.3681 17.4331C46.8378 17.7063 47.6944 17.8429 48.9103 17.8429C50.0432 17.8429 51.3143 17.679 52.7236 17.3511V19.5097C51.3143 19.8103 49.8222 19.9469 48.2471 19.9469C44.1851 19.9469 42.1678 18.7173 42.1678 16.2854ZM49.7393 13.0611V11.4217C49.7393 11.0391 49.5735 10.7659 49.2695 10.5746C48.9655 10.3833 48.4405 10.3014 47.7221 10.3014C46.8931 10.3014 46.3404 10.3833 46.0641 10.5746C45.7601 10.7659 45.622 11.0664 45.622 11.4217V13.0611H49.7393Z" fill="#093845"/>
<path d="M63.0031 4.80911H69.1928C70.6574 4.80911 71.7903 4.91841 72.564 5.13701C73.3654 5.3556 73.9181 5.6835 74.2497 6.14801C74.5812 6.61253 74.747 7.24099 74.747 8.06073V9.9188C74.747 10.3287 74.5812 10.7385 74.2497 11.0937C73.9181 11.4763 73.5036 11.7222 73.0614 11.8588V11.9681C73.6694 12.0228 74.1944 12.2687 74.6918 12.7332C75.1892 13.1704 75.4379 13.6623 75.4379 14.2087V16.5313C75.4379 17.7609 74.9405 18.6353 73.9457 19.1272C72.9509 19.6463 71.4311 19.8922 69.3586 19.8922H63.0031V4.80911ZM69.1928 10.9571C69.7731 10.9571 70.2152 10.9025 70.4916 10.8205C70.7679 10.7385 70.9613 10.5746 71.0719 10.356C71.1824 10.1374 71.2377 9.83682 71.2377 9.42695V8.68919C71.2377 8.33397 71.1824 8.06073 71.0995 7.89678C71.0166 7.70551 70.8232 7.59621 70.5192 7.51424C70.2152 7.43227 69.7731 7.40494 69.1376 7.40494H66.6782V10.9571H69.1928ZM69.3034 17.3237C70.1876 17.3237 70.8232 17.2144 71.21 17.0232C71.5969 16.8319 71.7627 16.504 71.7627 16.0395V14.8372C71.7627 14.2907 71.6245 13.8808 71.3206 13.6623C71.0166 13.4163 70.5192 13.307 69.7731 13.307H66.6782V17.3237H69.3034Z" fill="#1DD1A1"/>
<path d="M81.5448 20.0835C81.1027 20.0289 80.6053 19.9469 80.0803 19.8103C79.5276 19.6463 79.0579 19.4277 78.7263 19.1545C78.3947 18.8539 78.0907 18.4714 77.842 17.9249C77.5933 17.4057 77.4828 16.8046 77.4828 16.0668V12.7059C77.4828 11.9681 77.5933 11.3123 77.842 10.7385C78.0907 10.192 78.3947 9.75484 78.7539 9.42694C79.0855 9.1537 79.5276 8.9351 80.0527 8.77115C80.6053 8.57988 81.1303 8.47058 81.6554 8.44326C82.2633 8.41594 82.7883 8.38861 83.2857 8.38861C84.0042 8.38861 84.5845 8.41594 85.0266 8.44326C85.4687 8.47058 85.9385 8.57988 86.4635 8.74383C87.0162 8.90778 87.4859 9.1537 87.8451 9.45427C88.2044 9.75484 88.5083 10.1647 88.757 10.7112C89.0057 11.2577 89.1163 11.9408 89.1163 12.7059V16.0395C89.1163 16.7499 89.0057 17.3511 88.7847 17.8702C88.5636 18.3894 88.2596 18.7992 87.9004 19.0998C87.5964 19.3731 87.1543 19.5643 86.6293 19.7283C86.0766 19.8922 85.5516 20.0015 85.0266 20.0562C84.5568 20.1108 84.0042 20.1381 83.341 20.1381C82.5673 20.1381 81.987 20.1108 81.5448 20.0835ZM84.7503 17.8702C85.0819 17.7609 85.3029 17.597 85.4411 17.4057C85.5792 17.1871 85.6345 16.8592 85.6345 16.4493V12.1867C85.6345 11.5583 85.4687 11.1211 85.1371 10.8751C84.8055 10.6292 84.1976 10.4926 83.2857 10.4926C82.3738 10.4926 81.7659 10.6292 81.4343 10.8751C81.1027 11.1211 80.9369 11.5583 80.9369 12.1867V16.4493C80.9369 16.8592 80.9922 17.1871 81.1303 17.4057C81.2685 17.6243 81.4896 17.7882 81.8212 17.8702C82.1528 17.9795 82.6501 18.0342 83.2857 18.0342C83.9213 18.0342 84.4187 17.9795 84.7503 17.8702Z" fill="#1DD1A1"/>
<path d="M94.9467 14.1268L90.7188 8.63455H94.698L96.9362 11.8588L99.2021 8.63455H103.181L98.9258 14.1268L103.43 19.8922H99.4508L96.9639 16.3401L94.5045 19.8922H90.5254L94.9467 14.1268Z" fill="#1DD1A1"/>
<path d="M119.955 23.9909H58.8582V0H119.955V23.9909ZM60.7372 22.1329H118.076V1.85807H60.7372V22.1329Z" fill="#093845"/>
<path d="M115.976 17.7063H106.221V19.9196H115.976V17.7063Z" fill="#093845"/>
</svg>
